<svg height="4110" width="720" xmlns="http://www.w3.org/2000/svg">
<rect height="4110" fill="#555" width="720"></rect>
<text fill="#7f7" font-family="Courier New" font-size="12" xml:space="preserve">
<tspan x="10" y="26">173 megabytes</tspan>
<tspan x="10" y="42">└─┬ nw@0.21.5 </tspan>
<tspan x="10" y="58">  ├─┬ chalk@1.1.3 </tspan>
<tspan x="10" y="74">  │ ├── ansi-styles@2.2.1 </tspan>
<tspan x="10" y="90">  │ ├── escape-string-regexp@1.0.5 </tspan>
<tspan x="10" y="106">  │ ├─┬ has-ansi@2.0.0 </tspan>
<tspan x="10" y="122">  │ │ └── ansi-regex@2.1.1 </tspan>
<tspan x="10" y="138">  │ ├── strip-ansi@3.0.1 </tspan>
<tspan x="10" y="154">  │ └── supports-color@2.0.0 </tspan>
<tspan x="10" y="170">  ├─┬ decompress@3.0.0 </tspan>
<tspan x="10" y="186">  │ ├─┬ buffer-to-vinyl@1.1.0 </tspan>
<tspan x="10" y="202">  │ │ ├── file-type@3.9.0 </tspan>
<tspan x="10" y="218">  │ │ └── uuid@2.0.3 </tspan>
<tspan x="10" y="234">  │ ├─┬ concat-stream@1.6.0 </tspan>
<tspan x="10" y="250">  │ │ ├── inherits@2.0.3 </tspan>
<tspan x="10" y="266">  │ │ └── typedarray@0.0.6 </tspan>
<tspan x="10" y="282">  │ ├─┬ decompress-tar@3.1.0 </tspan>
<tspan x="10" y="298">  │ │ ├── is-tar@1.0.0 </tspan>
<tspan x="10" y="314">  │ │ ├── object-assign@2.1.1 </tspan>
<tspan x="10" y="330">  │ │ ├─┬ strip-dirs@1.1.1 </tspan>
<tspan x="10" y="346">  │ │ │ ├── get-stdin@4.0.1 </tspan>
<tspan x="10" y="362">  │ │ │ ├─┬ is-absolute@0.1.7 </tspan>
<tspan x="10" y="378">  │ │ │ │ └── is-relative@0.1.3 </tspan>
<tspan x="10" y="394">  │ │ │ ├── is-natural-number@2.1.1 </tspan>
<tspan x="10" y="410">  │ │ │ ├── minimist@1.2.0 </tspan>
<tspan x="10" y="426">  │ │ │ └── sum-up@1.0.3 </tspan>
<tspan x="10" y="442">  │ │ ├─┬ tar-stream@1.5.2 </tspan>
<tspan x="10" y="458">  │ │ │ ├── bl@1.2.0 </tspan>
<tspan x="10" y="474">  │ │ │ ├── end-of-stream@1.4.0 </tspan>
<tspan x="10" y="490">  │ │ │ └── xtend@4.0.1 </tspan>
<tspan x="10" y="506">  │ │ ├─┬ through2@0.6.5 </tspan>
<tspan x="10" y="522">  │ │ │ └─┬ readable-stream@1.0.34 </tspan>
<tspan x="10" y="538">  │ │ │   ├── isarray@0.0.1 </tspan>
<tspan x="10" y="554">  │ │ │   └── string_decoder@0.10.31 </tspan>
<tspan x="10" y="570">  │ │ └─┬ vinyl@0.4.6 </tspan>
<tspan x="10" y="586">  │ │   └── clone@0.2.0 </tspan>
<tspan x="10" y="602">  │ ├─┬ decompress-tarbz2@3.1.0 </tspan>
<tspan x="10" y="618">  │ │ ├── is-bzip2@1.0.0 </tspan>
<tspan x="10" y="634">  │ │ ├─┬ seek-bzip@1.0.5 </tspan>
<tspan x="10" y="650">  │ │ │ └─┬ commander@2.8.1 </tspan>
<tspan x="10" y="666">  │ │ │   └── graceful-readlink@1.0.1 </tspan>
<tspan x="10" y="682">  │ │ └─┬ vinyl@0.4.6 </tspan>
<tspan x="10" y="698">  │ │   └── clone@0.2.0 </tspan>
<tspan x="10" y="714">  │ ├─┬ decompress-targz@3.1.0 </tspan>
<tspan x="10" y="730">  │ │ ├── is-gzip@1.0.0 </tspan>
<tspan x="10" y="746">  │ │ └─┬ vinyl@0.4.6 </tspan>
<tspan x="10" y="762">  │ │   └── clone@0.2.0 </tspan>
<tspan x="10" y="778">  │ ├─┬ decompress-unzip@3.4.0 </tspan>
<tspan x="10" y="794">  │ │ ├── is-zip@1.0.0 </tspan>
<tspan x="10" y="810">  │ │ ├── stat-mode@0.2.2 </tspan>
<tspan x="10" y="826">  │ │ ├── through2@2.0.3 </tspan>
<tspan x="10" y="842">  │ │ └─┬ yauzl@2.7.0 </tspan>
<tspan x="10" y="858">  │ │   ├── buffer-crc32@0.2.13 </tspan>
<tspan x="10" y="874">  │ │   └─┬ fd-slicer@1.0.1 </tspan>
<tspan x="10" y="890">  │ │     └── pend@1.2.0 </tspan>
<tspan x="10" y="906">  │ ├─┬ stream-combiner2@1.1.1 </tspan>
<tspan x="10" y="922">  │ │ └── duplexer2@0.1.4 </tspan>
<tspan x="10" y="938">  │ ├─┬ vinyl-assign@1.2.1 </tspan>
<tspan x="10" y="954">  │ │ └── object-assign@4.1.1 </tspan>
<tspan x="10" y="970">  │ └─┬ vinyl-fs@2.4.4 </tspan>
<tspan x="10" y="986">  │   ├─┬ duplexify@3.5.0 </tspan>
<tspan x="10" y="1002">  │   │ ├─┬ end-of-stream@1.0.0 </tspan>
<tspan x="10" y="1018">  │   │ │ └── once@1.3.3 </tspan>
<tspan x="10" y="1034">  │   │ └── stream-shift@1.0.0 </tspan>
<tspan x="10" y="1050">  │   ├─┬ glob-stream@5.3.5 </tspan>
<tspan x="10" y="1066">  │   │ ├── extend@3.0.0 </tspan>
<tspan x="10" y="1082">  │   │ ├── glob@5.0.15 </tspan>
<tspan x="10" y="1098">  │   │ ├─┬ glob-parent@3.1.0 </tspan>
<tspan x="10" y="1114">  │   │ │ ├─┬ is-glob@3.1.0 </tspan>
<tspan x="10" y="1130">  │   │ │ │ └── is-extglob@2.1.1 </tspan>
<tspan x="10" y="1146">  │   │ │ └── path-dirname@1.0.2 </tspan>
<tspan x="10" y="1162">  │   │ ├─┬ micromatch@2.3.11 </tspan>
<tspan x="10" y="1178">  │   │ │ ├─┬ arr-diff@2.0.0 </tspan>
<tspan x="10" y="1194">  │   │ │ │ └── arr-flatten@1.0.1 </tspan>
<tspan x="10" y="1210">  │   │ │ ├── array-unique@0.2.1 </tspan>
<tspan x="10" y="1226">  │   │ │ ├─┬ braces@1.8.5 </tspan>
<tspan x="10" y="1242">  │   │ │ │ ├─┬ expand-range@1.8.2 </tspan>
<tspan x="10" y="1258">  │   │ │ │ │ └─┬ fill-range@2.2.3 </tspan>
<tspan x="10" y="1274">  │   │ │ │ │   ├── is-number@2.1.0 </tspan>
<tspan x="10" y="1290">  │   │ │ │ │   ├── isobject@2.1.0 </tspan>
<tspan x="10" y="1306">  │   │ │ │ │   ├── randomatic@1.1.6 </tspan>
<tspan x="10" y="1322">  │   │ │ │ │   └── repeat-string@1.6.1 </tspan>
<tspan x="10" y="1338">  │   │ │ │ ├── preserve@0.2.0 </tspan>
<tspan x="10" y="1354">  │   │ │ │ └── repeat-element@1.1.2 </tspan>
<tspan x="10" y="1370">  │   │ │ ├─┬ expand-brackets@0.1.5 </tspan>
<tspan x="10" y="1386">  │   │ │ │ └── is-posix-bracket@0.1.1 </tspan>
<tspan x="10" y="1402">  │   │ │ ├─┬ extglob@0.3.2 </tspan>
<tspan x="10" y="1418">  │   │ │ │ └── is-extglob@1.0.0 </tspan>
<tspan x="10" y="1434">  │   │ │ ├── filename-regex@2.0.0 </tspan>
<tspan x="10" y="1450">  │   │ │ ├── is-extglob@1.0.0 </tspan>
<tspan x="10" y="1466">  │   │ │ ├── is-glob@2.0.1 </tspan>
<tspan x="10" y="1482">  │   │ │ ├─┬ kind-of@3.1.0 </tspan>
<tspan x="10" y="1498">  │   │ │ │ └── is-buffer@1.1.5 </tspan>
<tspan x="10" y="1514">  │   │ │ ├─┬ normalize-path@2.1.1 </tspan>
<tspan x="10" y="1530">  │   │ │ │ └── remove-trailing-separator@1.0.1 </tspan>
<tspan x="10" y="1546">  │   │ │ ├─┬ object.omit@2.0.1 </tspan>
<tspan x="10" y="1562">  │   │ │ │ ├─┬ for-own@0.1.5 </tspan>
<tspan x="10" y="1578">  │   │ │ │ │ └── for-in@1.0.2 </tspan>
<tspan x="10" y="1594">  │   │ │ │ └── is-extendable@0.1.1 </tspan>
<tspan x="10" y="1610">  │   │ │ ├─┬ parse-glob@3.0.4 </tspan>
<tspan x="10" y="1626">  │   │ │ │ ├─┬ glob-base@0.3.0 </tspan>
<tspan x="10" y="1642">  │   │ │ │ │ ├── glob-parent@2.0.0 </tspan>
<tspan x="10" y="1658">  │   │ │ │ │ └─┬ is-glob@2.0.1 </tspan>
<tspan x="10" y="1674">  │   │ │ │ │   └── is-extglob@1.0.0 </tspan>
<tspan x="10" y="1690">  │   │ │ │ ├── is-dotfile@1.0.2 </tspan>
<tspan x="10" y="1706">  │   │ │ │ ├── is-extglob@1.0.0 </tspan>
<tspan x="10" y="1722">  │   │ │ │ └── is-glob@2.0.1 </tspan>
<tspan x="10" y="1738">  │   │ │ └─┬ regex-cache@0.4.3 </tspan>
<tspan x="10" y="1754">  │   │ │   ├── is-equal-shallow@0.1.3 </tspan>
<tspan x="10" y="1770">  │   │ │   └── is-primitive@2.0.0 </tspan>
<tspan x="10" y="1786">  │   │ ├── ordered-read-streams@0.3.0 </tspan>
<tspan x="10" y="1802">  │   │ ├─┬ to-absolute-glob@0.1.1 </tspan>
<tspan x="10" y="1818">  │   │ │ └── extend-shallow@2.0.1 </tspan>
<tspan x="10" y="1834">  │   │ └─┬ unique-stream@2.2.1 </tspan>
<tspan x="10" y="1850">  │   │   └─┬ json-stable-stringify@1.0.1 </tspan>
<tspan x="10" y="1866">  │   │     └── jsonify@0.0.0 </tspan>
<tspan x="10" y="1882">  │   ├── graceful-fs@4.1.11 </tspan>
<tspan x="10" y="1898">  │   ├─┬ gulp-sourcemaps@1.6.0 </tspan>
<tspan x="10" y="1914">  │   │ ├── convert-source-map@1.5.0 </tspan>
<tspan x="10" y="1930">  │   │ └── through2@2.0.3 </tspan>
<tspan x="10" y="1946">  │   ├── is-valid-glob@0.3.0 </tspan>
<tspan x="10" y="1962">  │   ├── lazystream@1.0.0 </tspan>
<tspan x="10" y="1978">  │   ├── lodash.isequal@4.5.0 </tspan>
<tspan x="10" y="1994">  │   ├── merge-stream@1.0.1 </tspan>
<tspan x="10" y="2010">  │   ├─┬ mkdirp@0.5.1 </tspan>
<tspan x="10" y="2026">  │   │ └── minimist@0.0.8 </tspan>
<tspan x="10" y="2042">  │   ├── object-assign@4.1.1 </tspan>
<tspan x="10" y="2058">  │   ├─┬ strip-bom@2.0.0 </tspan>
<tspan x="10" y="2074">  │   │ └── is-utf8@0.2.1 </tspan>
<tspan x="10" y="2090">  │   ├─┬ strip-bom-stream@1.0.0 </tspan>
<tspan x="10" y="2106">  │   │ └── first-chunk-stream@1.0.0 </tspan>
<tspan x="10" y="2122">  │   ├── through2@2.0.3 </tspan>
<tspan x="10" y="2138">  │   ├─┬ through2-filter@2.0.0 </tspan>
<tspan x="10" y="2154">  │   │ └── through2@2.0.3 </tspan>
<tspan x="10" y="2170">  │   └── vali-date@1.0.0 </tspan>
<tspan x="10" y="2186">  ├─┬ download@4.4.3 </tspan>
<tspan x="10" y="2202">  │ ├─┬ caw@1.2.0 </tspan>
<tspan x="10" y="2218">  │ │ ├─┬ get-proxy@1.1.0 </tspan>
<tspan x="10" y="2234">  │ │ │ └─┬ rc@1.2.1 </tspan>
<tspan x="10" y="2250">  │ │ │   ├── deep-extend@0.4.1 </tspan>
<tspan x="10" y="2266">  │ │ │   ├── ini@1.3.4 </tspan>
<tspan x="10" y="2282">  │ │ │   └── strip-json-comments@2.0.1 </tspan>
<tspan x="10" y="2298">  │ │ ├── is-obj@1.0.1 </tspan>
<tspan x="10" y="2314">  │ │ ├── object-assign@3.0.0 </tspan>
<tspan x="10" y="2330">  │ │ └── tunnel-agent@0.4.3 </tspan>
<tspan x="10" y="2346">  │ ├─┬ each-async@1.1.1 </tspan>
<tspan x="10" y="2362">  │ │ ├── onetime@1.1.0 </tspan>
<tspan x="10" y="2378">  │ │ └── set-immediate-shim@1.0.1 </tspan>
<tspan x="10" y="2394">  │ ├─┬ filenamify@1.2.1 </tspan>
<tspan x="10" y="2410">  │ │ ├── filename-reserved-regex@1.0.0 </tspan>
<tspan x="10" y="2426">  │ │ ├── strip-outer@1.0.0 </tspan>
<tspan x="10" y="2442">  │ │ └── trim-repeated@1.0.0 </tspan>
<tspan x="10" y="2458">  │ ├─┬ got@5.7.1 </tspan>
<tspan x="10" y="2474">  │ │ ├─┬ create-error-class@3.0.2 </tspan>
<tspan x="10" y="2490">  │ │ │ └── capture-stack-trace@1.0.0 </tspan>
<tspan x="10" y="2506">  │ │ ├── is-redirect@1.0.0 </tspan>
<tspan x="10" y="2522">  │ │ ├── is-retry-allowed@1.1.0 </tspan>
<tspan x="10" y="2538">  │ │ ├── is-stream@1.1.0 </tspan>
<tspan x="10" y="2554">  │ │ ├── lowercase-keys@1.0.0 </tspan>
<tspan x="10" y="2570">  │ │ ├── node-status-codes@1.0.0 </tspan>
<tspan x="10" y="2586">  │ │ ├── object-assign@4.1.1 </tspan>
<tspan x="10" y="2602">  │ │ ├─┬ parse-json@2.2.0 </tspan>
<tspan x="10" y="2618">  │ │ │ └─┬ error-ex@1.3.1 </tspan>
<tspan x="10" y="2634">  │ │ │   └── is-arrayish@0.2.1 </tspan>
<tspan x="10" y="2650">  │ │ ├─┬ pinkie-promise@2.0.1 </tspan>
<tspan x="10" y="2666">  │ │ │ └── pinkie@2.0.4 </tspan>
<tspan x="10" y="2682">  │ │ ├── timed-out@3.1.3 </tspan>
<tspan x="10" y="2698">  │ │ ├── unzip-response@1.0.2 </tspan>
<tspan x="10" y="2714">  │ │ └─┬ url-parse-lax@1.0.0 </tspan>
<tspan x="10" y="2730">  │ │   └── prepend-http@1.0.4 </tspan>
<tspan x="10" y="2746">  │ ├─┬ gulp-decompress@1.2.0 </tspan>
<tspan x="10" y="2762">  │ │ ├── archive-type@3.2.0 </tspan>
<tspan x="10" y="2778">  │ │ └─┬ gulp-util@3.0.8 </tspan>
<tspan x="10" y="2794">  │ │   ├── array-differ@1.0.0 </tspan>
<tspan x="10" y="2810">  │ │   ├── array-uniq@1.0.3 </tspan>
<tspan x="10" y="2826">  │ │   ├── beeper@1.1.1 </tspan>
<tspan x="10" y="2842">  │ │   ├── dateformat@2.0.0 </tspan>
<tspan x="10" y="2858">  │ │   ├─┬ fancy-log@1.3.0 </tspan>
<tspan x="10" y="2874">  │ │   │ └── time-stamp@1.0.1 </tspan>
<tspan x="10" y="2890">  │ │   ├─┬ gulplog@1.0.0 </tspan>
<tspan x="10" y="2906">  │ │   │ └── glogg@1.0.0 </tspan>
<tspan x="10" y="2922">  │ │   ├─┬ has-gulplog@0.1.0 </tspan>
<tspan x="10" y="2938">  │ │   │ └── sparkles@1.0.0 </tspan>
<tspan x="10" y="2954">  │ │   ├── lodash._reescape@3.0.0 </tspan>
<tspan x="10" y="2970">  │ │   ├── lodash._reevaluate@3.0.0 </tspan>
<tspan x="10" y="2986">  │ │   ├── lodash._reinterpolate@3.0.0 </tspan>
<tspan x="10" y="3002">  │ │   ├─┬ lodash.template@3.6.2 </tspan>
<tspan x="10" y="3018">  │ │   │ ├── lodash._basecopy@3.0.1 </tspan>
<tspan x="10" y="3034">  │ │   │ ├── lodash._basetostring@3.0.1 </tspan>
<tspan x="10" y="3050">  │ │   │ ├── lodash._basevalues@3.0.0 </tspan>
<tspan x="10" y="3066">  │ │   │ ├── lodash._isiterateecall@3.0.9 </tspan>
<tspan x="10" y="3082">  │ │   │ ├─┬ lodash.escape@3.2.0 </tspan>
<tspan x="10" y="3098">  │ │   │ │ └── lodash._root@3.0.1 </tspan>
<tspan x="10" y="3114">  │ │   │ ├─┬ lodash.keys@3.1.2 </tspan>
<tspan x="10" y="3130">  │ │   │ │ ├── lodash._getnative@3.9.1 </tspan>
<tspan x="10" y="3146">  │ │   │ │ ├── lodash.isarguments@3.1.0 </tspan>
<tspan x="10" y="3162">  │ │   │ │ └── lodash.isarray@3.0.4 </tspan>
<tspan x="10" y="3178">  │ │   │ ├── lodash.restparam@3.6.1 </tspan>
<tspan x="10" y="3194">  │ │   │ └── lodash.templatesettings@3.1.1 </tspan>
<tspan x="10" y="3210">  │ │   ├─┬ multipipe@0.1.2 </tspan>
<tspan x="10" y="3226">  │ │   │ └─┬ duplexer2@0.0.2 </tspan>
<tspan x="10" y="3242">  │ │   │   └─┬ readable-stream@1.1.14 </tspan>
<tspan x="10" y="3258">  │ │   │     ├── isarray@0.0.1 </tspan>
<tspan x="10" y="3274">  │ │   │     └── string_decoder@0.10.31 </tspan>
<tspan x="10" y="3290">  │ │   ├── object-assign@3.0.0 </tspan>
<tspan x="10" y="3306">  │ │   ├── through2@2.0.3 </tspan>
<tspan x="10" y="3322">  │ │   └── vinyl@0.5.3 </tspan>
<tspan x="10" y="3338">  │ ├── gulp-rename@1.2.2 </tspan>
<tspan x="10" y="3354">  │ ├── is-url@1.2.2 </tspan>
<tspan x="10" y="3370">  │ ├── object-assign@4.1.1 </tspan>
<tspan x="10" y="3386">  │ ├── read-all-stream@3.1.0 </tspan>
<tspan x="10" y="3402">  │ ├─┬ readable-stream@2.2.7 </tspan>
<tspan x="10" y="3418">  │ │ ├── buffer-shims@1.0.0 </tspan>
<tspan x="10" y="3434">  │ │ ├── core-util-is@1.0.2 </tspan>
<tspan x="10" y="3450">  │ │ ├── isarray@1.0.0 </tspan>
<tspan x="10" y="3466">  │ │ ├── process-nextick-args@1.0.7 </tspan>
<tspan x="10" y="3482">  │ │ ├── string_decoder@1.0.0 </tspan>
<tspan x="10" y="3498">  │ │ └── util-deprecate@1.0.2 </tspan>
<tspan x="10" y="3514">  │ ├─┬ vinyl@1.2.0 </tspan>
<tspan x="10" y="3530">  │ │ ├── clone@1.0.2 </tspan>
<tspan x="10" y="3546">  │ │ ├── clone-stats@0.0.1 </tspan>
<tspan x="10" y="3562">  │ │ └── replace-ext@0.0.1 </tspan>
<tspan x="10" y="3578">  │ └─┬ ware@1.3.0 </tspan>
<tspan x="10" y="3594">  │   └─┬ wrap-fn@0.1.5 </tspan>
<tspan x="10" y="3610">  │     └── co@3.1.0 </tspan>
<tspan x="10" y="3626">  ├── file-exists@2.0.0 </tspan>
<tspan x="10" y="3642">  ├── merge@1.2.0 </tspan>
<tspan x="10" y="3658">  ├─┬ multimeter@0.1.1 </tspan>
<tspan x="10" y="3674">  │ └── charm@0.1.2 </tspan>
<tspan x="10" y="3690">  ├─┬ rimraf@2.6.1 </tspan>
<tspan x="10" y="3706">  │ └─┬ glob@7.1.1 </tspan>
<tspan x="10" y="3722">  │   ├── fs.realpath@1.0.0 </tspan>
<tspan x="10" y="3738">  │   ├─┬ inflight@1.0.6 </tspan>
<tspan x="10" y="3754">  │   │ └── wrappy@1.0.2 </tspan>
<tspan x="10" y="3770">  │   ├─┬ minimatch@3.0.3 </tspan>
<tspan x="10" y="3786">  │   │ └─┬ brace-expansion@1.1.7 </tspan>
<tspan x="10" y="3802">  │   │   ├── balanced-match@0.4.2 </tspan>
<tspan x="10" y="3818">  │   │   └── concat-map@0.0.1 </tspan>
<tspan x="10" y="3834">  │   ├── once@1.4.0 </tspan>
<tspan x="10" y="3850">  │   └── path-is-absolute@1.0.1 </tspan>
<tspan x="10" y="3866">  ├── semver@5.3.0 </tspan>
<tspan x="10" y="3882">  └─┬ yargs@3.32.0 </tspan>
<tspan x="10" y="3898">    ├── camelcase@2.1.1 </tspan>
<tspan x="10" y="3914">    ├─┬ cliui@3.2.0 </tspan>
<tspan x="10" y="3930">    │ └── wrap-ansi@2.1.0 </tspan>
<tspan x="10" y="3946">    ├── decamelize@1.2.0 </tspan>
<tspan x="10" y="3962">    ├─┬ os-locale@1.4.0 </tspan>
<tspan x="10" y="3978">    │ └─┬ lcid@1.0.0 </tspan>
<tspan x="10" y="3994">    │   └── invert-kv@1.0.0 </tspan>
<tspan x="10" y="4010">    ├─┬ string-width@1.0.2 </tspan>
<tspan x="10" y="4026">    │ ├── code-point-at@1.1.0 </tspan>
<tspan x="10" y="4042">    │ └─┬ is-fullwidth-code-point@1.0.0 </tspan>
<tspan x="10" y="4058">    │   └── number-is-nan@1.0.1 </tspan>
<tspan x="10" y="4074">    ├── window-size@0.1.4 </tspan>
<tspan x="10" y="4090">    └── y18n@3.2.1</tspan>
</text>
</svg>
